<svg xmlns="http://www.w3.org/2000/svg" xmlns:xlink="http://www.w3.org/1999/xlink"><symbol id="htmlacademy"><g fill="none"><path d="M13.6 0h-.1L0 1.4v24.7l13.5 8 13.4-8V1.4L13.6 0ZM25 12.1 13.5 5.3v-.1h-.1l-.1-.1v.1L1.9 12.1v-9l11.5-1.2L25 3.1v9ZM13.4 6.8l11.5 6.7-4.5 2.6-7.1-4.2v1.4l5.9 3.5-.9.5-5-3v1.4l3.8 2.3-.8.5-3-1.8v1.4l1.9 1.1-1.8 1.1L2 13.6l11.4-6.8ZM1.9 15.1l11.4 6.8v1l-7.9-4.7v1.4l8 4.8v1.1l-8-4.7v1.4l8 4.8 8.1-4.9v-5.2l3.4-2v10l-11.5 6.9L1.9 25v-9.9Z" fill="#000"/></g></symbol><symbol id="like"><g fill="none"><path d="m17.4 9.6-.6 2.9-.6 2.5h8.7v2.1L22 24h-9V14l4.4-4.4ZM7 16v8-8ZM18.2 6l-6.6 6.6c-.4.3-.6.8-.6 1.4v10c0 1.1.9 2 2 2h9c.8 0 1.5-.5 1.8-1.2l3-7.1c.1-.2.1-.5.1-.7v-2h.1c0-1.1-.9-2-2-2h-6.3l1-4.6v-.3c0-.4-.2-.8-.4-1.1l-1.1-1ZM9 14H5v12h4V14Z" fill="#81B3D2"/></g></symbol></svg>